<svg xmlns="http://www.w3.org/2000/svg" viewBox="0 0 368 56">
    <g fill="#ffffff">
        <path d="M0,0V39.5a7.5,7.5,0,0,0,7.5,7.5H24.6V8.8Z" opacity="0.7"/>
        <path d="M24.6,8.8V47H35.8V17.8a7.5,7.5,0,0,0,-4.7,-6.7Z" opacity="0.65"/>
        <path d="M24.6,4.2V8.8L31.1,11.1a7.5,7.5,0,0,1,4.7,6.7V47H54.8V15.2Z" opacity="0.8"/>
        <path d="M54.8,15.2L56.5,15.8a5.8,5.8,0,0,1,3.8,5.5V47H54.8Z" opacity="0.75"/>
        <path d="M54.8,4.2V15.2L56.5,15.8a5.8,5.8,0,0,1,3.8,5.5V47a5.6,5.6,0,0,0,5.6,-5.6V13.5a6.6,6.6,0,0,0,-3.9,-5.6Z" opacity="0.9"/>
        <path d="M95.08,14A13,13,0,0,1,105,18.4a16.16,16.16,0,0,1,0,21.52,13,13,0,0,1-9.9,4.39,11.32,11.32,0,0,1-9.3-4.19v3.39h-7.4V3.33h7.36V18.2Q89,14,95,14ZM88,35a7.69,7.69,0,0,0,5.68,2.27A7.77,7.77,0,0,0,99.41,35a8.61,8.61,0,0,0,0-11.66,7.77,7.77,0,0,0-5.71-2.27A7.69,7.69,0,0,0,88,23.35,8.7,8.7,0,0,0,88,35Z"/>
        <path d="M137.74,39.92a15.15,15.15,0,1,1,0-21.52A15.31,15.31,0,0,1,137.74,39.92Zm-16.33-5.08A7.47,7.47,0,0,0,127,37.08a7.59,7.59,0,0,0,5.57-2.24,8.31,8.31,0,0,0,0-11.36A7.59,7.59,0,0,0,127,21.24a7.47,7.47,0,0,0-5.54,2.24A8.4,8.4,0,0,0,121.41,34.84Z"/>
        <path d="M146.45,43.51V1.61h7.4v41.9Z"/>
        <path d="M181.41,3.33h7.4V43.51h-7.4V40.12q-3.27,4.18-9.3,4.19a12.83,12.83,0,0,1-9.9-4.39,16.16,16.16,0,0,1,0-21.52,13,13,0,0,1,9.9-4.39,11.32,11.32,0,0,1,9.3,4.19ZM167.74,35a7.77,7.77,0,0,0,5.71,2.27A7.69,7.69,0,0,0,179.13,35a8.7,8.7,0,0,0,0-11.66,7.69,7.69,0,0,0-5.68-2.27,7.77,7.77,0,0,0-5.71,2.27A8.61,8.61,0,0,0,167.74,35Z"/>
        <path d="M209.19,5.51q-8.55-.69-8.55,7.81v1.55h8.55v2.81h-8.55V43.51h-2.9V17.63h-5V14.82h5V13.27c0-3.6,1-6.32,3-8.18s4.81-2.65,8.52-2.38v2.8Z"/>
        <path d="M236,14.81h2.93v28.7H236V37a13.55,13.55,0,0,1-5,5.22,14.1,14.1,0,0,1-7.29,1.89,15,15,0,0,1,0-30A14.1,14.1,0,0,1,231,16a13.49,13.49,0,0,1,5,5.22Zm-20.75,23a12.22,12.22,0,0,0,17.25,0,12.48,12.48,0,0,0,0-17.34,12.22,12.22,0,0,0-17.25,0A12.41,12.41,0,0,0,215.24,37.81Z"/>
        <path d="M259.93,44.14a15,15,0,1,1,7.58-28,11.84,11.84,0,0,1,4.94,5.37l-2.35,1.38a9.6,9.6,0,0,0-4-4.36,11.93,11.93,0,0,0-6.17-1.61,11.77,11.77,0,0,0-8.67,3.53,12.56,12.56,0,0,0,0,17.4,11.72,11.72,0,0,0,8.67,3.53,11.93,11.93,0,0,0,6.17-1.61,10.78,10.78,0,0,0,4.16-4.36l2.41,1.43a13,13,0,0,1-5.14,5.31,14.83,14.83,0,0,1-7.61,2Z"/>
        <path d="M287.24,17.62h-8.5V36.27a5.54,5.54,0,0,0,.92,3.56,3.85,3.85,0,0,0,2.81,1.23,28.74,28.74,0,0,0,4.82-.14v2.59c-3.87.57-6.74.31-8.64-.8s-2.84-3.25-2.84-6.43V7.63l2.93-.86v8h8.55v2.81Z"/>
        <path d="M304.57,44.14a14.68,14.68,0,0,1-10.71-4.33,15.1,15.1,0,0,1,0-21.3,15.34,15.34,0,0,1,21.36,0,15.1,15.1,0,0,1,0,21.3A14.62,14.62,0,0,1,304.57,44.14Zm-8.64-6.31a12.22,12.22,0,0,0,17.25,0,12.48,12.48,0,0,0,0-17.34,12.22,12.22,0,0,0-17.25,0A12.41,12.41,0,0,0,295.93,37.83Z"/>
        <path d="M328.39,20.44q2.58-6,9.59-6V17.2a9.56,9.56,0,0,0-6.83,2.61q-2.76,2.61-2.76,7.78v16h-2.87V14.89h2.87v5.55Z"/>
        <path d="M364.38,14.81h3.1l-12.4,31.34a15.68,15.68,0,0,1-4.71,6.69A9.17,9.17,0,0,1,343.71,55v-2.7a6.73,6.73,0,0,0,5-1.58,13,13,0,0,0,3.59-5.14l.63-1.55L339.74,14.8h3.1l11.59,25.54,10-25.54Z"/>
    </g>
</svg>